<?xml version="1.0" encoding="UTF-8" standalone="no"?>
<!-- Created with Inkscape (http://www.inkscape.org/) -->

<svg
   width="210mm"
   height="297mm"
   viewBox="0 0 210 297"
   version="1.1"
   id="svg5"
   inkscape:version="1.2.1 (9c6d41e410, 2022-07-14)"
   sodipodi:docname="107,215-1.svg"
   xml:space="preserve"
   inkscape:export-filename="107,215-1.png"
   inkscape:export-xdpi="600"
   inkscape:export-ydpi="600"
   xmlns:inkscape="http://www.inkscape.org/namespaces/inkscape"
   xmlns:sodipodi="http://sodipodi.sourceforge.net/DTD/sodipodi-0.dtd"
   xmlns="http://www.w3.org/2000/svg"
   xmlns:svg="http://www.w3.org/2000/svg"
   xmlns:rdf="http://www.w3.org/1999/02/22-rdf-syntax-ns#"
   xmlns:cc="http://creativecommons.org/ns#"
   xmlns:dc="http://purl.org/dc/elements/1.1/"><title
     id="title11">Ms-107,215-1</title><sodipodi:namedview
     id="namedview7"
     pagecolor="#ffffff"
     bordercolor="#111111"
     borderopacity="1"
     inkscape:showpageshadow="0"
     inkscape:pageopacity="0"
     inkscape:pagecheckerboard="1"
     inkscape:deskcolor="#d1d1d1"
     inkscape:document-units="mm"
     showgrid="false"
     inkscape:zoom="0.74208052"
     inkscape:cx="278.27169"
     inkscape:cy="468.27802"
     inkscape:window-width="2400"
     inkscape:window-height="1261"
     inkscape:window-x="-9"
     inkscape:window-y="-9"
     inkscape:window-maximized="1"
     inkscape:current-layer="layer1" /><defs
     id="defs2" /><g
     inkscape:label="Layer 1"
     inkscape:groupmode="layer"
     id="layer1"><path
       style="fill:none;stroke:#000000;stroke-width:0.396875;stroke-linecap:round;stroke-linejoin:miter;stroke-dasharray:none;stroke-opacity:1"
       d="m 71.407065,150.07114 c 2.499,-0.38665 4.66223,-1.02757 6.77431,-0.4873 1.56173,0.39949 3.71948,0.70873 4.81333,0.66557 1.20929,-0.0477 1.85986,-0.59401 3.29801,-0.35654 1.6125,0.26625 2.11514,0.0406 2.8654,-0.12362 1.31426,-0.28763 2.86474,0.30105 4.22089,0.21272 1.96236,-0.12782 8.947575,-0.42934 10.210405,-0.65738 0.15309,-0.0276 0.30992,0.062 0.57394,0.0973 0.57473,0.0766 1.47725,0.15913 2.59818,0.11726 2.1767,-0.0813 2.13322,-0.18375 5.06009,-0.20484 1.5475,-0.0112 1.82041,-0.41824 2.69446,-0.50423 0.66372,-0.0653 2.38977,0.58285 3.40354,0.18908 1.27899,-0.49679 3.05189,-0.35276 4.58531,-0.37816 2.04407,-0.0339 3.28723,-0.55998 4.85319,-0.17333 0.89241,0.22035 1.89464,0.1221 2.7575,0.0873 1.42063,-0.0573 2.29663,0.0689 2.86779,-0.81998 1.0227,-1.59228 0.97493,-0.93665 1.46541,-0.28363 0.77668,1.03405 1.74938,0.9722 2.56841,1.10361 0.64223,0.10305 1.06834,0.0806 1.5757,0.10181"
       id="path499"
       sodipodi:nodetypes="csssssssssssssssssc" /></g><metadata
     id="metadata9"><rdf:RDF><cc:Work
         rdf:about=""><dc:creator><cc:Agent><dc:title>Michele Lavazza</dc:title></cc:Agent></dc:creator><dc:publisher><cc:Agent><dc:title>Wittgenstein Archives at the University of Bergen</dc:title></cc:Agent></dc:publisher><dc:title>Ms-107,215-1</dc:title><dc:date>2023</dc:date><dc:subject><rdf:Bag><rdf:li>Wittgenstein</rdf:li></rdf:Bag></dc:subject><cc:license
           rdf:resource="http://creativecommons.org/licenses/by/4.0/" /></cc:Work><cc:License
         rdf:about="http://creativecommons.org/licenses/by/4.0/"><cc:permits
           rdf:resource="http://creativecommons.org/ns#Reproduction" /><cc:permits
           rdf:resource="http://creativecommons.org/ns#Distribution" /><cc:requires
           rdf:resource="http://creativecommons.org/ns#Notice" /><cc:requires
           rdf:resource="http://creativecommons.org/ns#Attribution" /><cc:permits
           rdf:resource="http://creativecommons.org/ns#DerivativeWorks" /></cc:License></rdf:RDF></metadata></svg>
