<?xml version="1.0" encoding="UTF-8" standalone="no"?>
<!-- Created with Inkscape (http://www.inkscape.org/) -->

<svg
   width="210mm"
   height="297mm"
   viewBox="0 0 210 297"
   version="1.1"
   id="svg5"
   inkscape:version="1.2.1 (9c6d41e410, 2022-07-14)"
   sodipodi:docname="131,191.svg"
   xml:space="preserve"
   inkscape:export-filename="131,191.png"
   inkscape:export-xdpi="600"
   inkscape:export-ydpi="600"
   xmlns:inkscape="http://www.inkscape.org/namespaces/inkscape"
   xmlns:sodipodi="http://sodipodi.sourceforge.net/DTD/sodipodi-0.dtd"
   xmlns="http://www.w3.org/2000/svg"
   xmlns:svg="http://www.w3.org/2000/svg"
   xmlns:rdf="http://www.w3.org/1999/02/22-rdf-syntax-ns#"
   xmlns:cc="http://creativecommons.org/ns#"
   xmlns:dc="http://purl.org/dc/elements/1.1/"><title
     id="title11">Ms-131,191</title><sodipodi:namedview
     id="namedview7"
     pagecolor="#ffffff"
     bordercolor="#111111"
     borderopacity="1"
     inkscape:showpageshadow="0"
     inkscape:pageopacity="0"
     inkscape:pagecheckerboard="1"
     inkscape:deskcolor="#d1d1d1"
     inkscape:document-units="mm"
     showgrid="false"
     inkscape:zoom="0.74208055"
     inkscape:cx="276.92412"
     inkscape:cy="689.27827"
     inkscape:window-width="1920"
     inkscape:window-height="991"
     inkscape:window-x="-9"
     inkscape:window-y="156"
     inkscape:window-maximized="1"
     inkscape:current-layer="layer1"
     showguides="false" /><defs
     id="defs2"><rect
       x="194.38561"
       y="312.06514"
       width="85.281924"
       height="95.763501"
       id="rect386" /><rect
       x="194.38561"
       y="312.06514"
       width="85.281924"
       height="95.763501"
       id="rect444" /><rect
       x="194.38561"
       y="312.06514"
       width="85.281924"
       height="95.763501"
       id="rect452" /></defs><g
     inkscape:label="Layer 1"
     inkscape:groupmode="layer"
     id="layer1"><g
       id="g1106"
       transform="translate(15.982647,56.926945)"><path
         d="m 76.358302,91.65367 q 0,-1.50895 0.810286,-2.360578 0.810287,-0.855763 2.091862,-0.855763 0.839227,0 1.513086,0.401011 0.673862,0.401007 1.02526,1.120343 0.355534,0.715203 0.355534,1.624709 0,0.921906 -0.37207,1.64951 -0.37207,0.727604 -1.054198,1.10381 -0.68213,0.37207 -1.471745,0.37207 -0.855763,0 -1.529622,-0.413411 -0.673862,-0.413412 -1.021128,-1.128615 -0.347265,-0.7152 -0.347265,-1.513086 z m 0.826823,0.01241 q 0,1.095539 0.587044,1.72806 0.59118,0.628385 1.480013,0.628385 0.905372,0 1.488281,-0.636653 0.587044,-0.636654 0.587044,-1.80661 0,-0.740005 -0.252179,-1.289843 -0.248047,-0.553972 -0.73174,-0.855761 -0.479557,-0.305924 -1.079002,-0.305924 -0.851628,0 -1.467612,0.587044 -0.611849,0.582909 -0.611849,1.951302 z"
         id="path1089"
         style="font-size:32px;line-height:1.25;font-family:Arial;-inkscape-font-specification:'Arial, Normal';white-space:pre;stroke-width:0.264583" /><g
         aria-label="H"
         transform="matrix(0.26458333,0,0,0.26458333,44.813208,-0.34872322)"
         id="text442"
         style="font-size:32px;line-height:1.25;font-family:Arial;-inkscape-font-specification:'Arial, Normal';white-space:pre;shape-inside:url(#rect444)"><path
           d="m 196.94727,340.88859 v -22.90625 h 3.03125 v 9.40625 h 11.90625 v -9.40625 h 3.03125 v 22.90625 h -3.03125 v -10.79687 h -11.90625 v 10.79687 z"
           id="path1083" /></g><g
         aria-label="H"
         transform="matrix(0.26458333,0,0,0.26458333,44.813208,9.1685685)"
         id="text450"
         style="font-size:32px;line-height:1.25;font-family:Arial;-inkscape-font-specification:'Arial, Normal';white-space:pre;shape-inside:url(#rect452)"><path
           d="m 196.94727,340.88859 v -22.90625 h 3.03125 v 9.40625 h 11.90625 v -9.40625 h 3.03125 v 22.90625 h -3.03125 v -10.79687 h -11.90625 v 10.79687 z"
           id="path1086" /></g><path
         style="fill:none;stroke:#000000;stroke-width:0.661458;stroke-linecap:butt;stroke-linejoin:miter;stroke-dasharray:none;stroke-opacity:1"
         d="M 84.237488,90.186431 95.204432,87.444694"
         id="path517" /><path
         style="fill:none;stroke:#000000;stroke-width:0.661458;stroke-linecap:butt;stroke-linejoin:miter;stroke-dasharray:none;stroke-opacity:1"
         d="m 84.237488,92.959681 10.966944,2.741737"
         id="path1073" /></g></g><metadata
     id="metadata9"><rdf:RDF><cc:Work
         rdf:about=""><cc:license
           rdf:resource="http://creativecommons.org/licenses/by/4.0/" /><dc:creator><cc:Agent><dc:title>Sara Lavazza</dc:title></cc:Agent></dc:creator><dc:publisher><cc:Agent><dc:title>Wittgenstein Archives at the University of Bergen</dc:title></cc:Agent></dc:publisher><dc:title>Ms-131,191</dc:title><dc:date>2023</dc:date><dc:subject><rdf:Bag><rdf:li>Wittgenstein</rdf:li></rdf:Bag></dc:subject></cc:Work><cc:License
         rdf:about="http://creativecommons.org/licenses/by/4.0/"><cc:permits
           rdf:resource="http://creativecommons.org/ns#Reproduction" /><cc:permits
           rdf:resource="http://creativecommons.org/ns#Distribution" /><cc:requires
           rdf:resource="http://creativecommons.org/ns#Notice" /><cc:requires
           rdf:resource="http://creativecommons.org/ns#Attribution" /><cc:permits
           rdf:resource="http://creativecommons.org/ns#DerivativeWorks" /></cc:License></rdf:RDF></metadata></svg>
